<?xml version="1.0" standalone="no"?>
<!DOCTYPE svg PUBLIC "-//W3C//DTD SVG 20010904//EN" "http://www.w3.org/TR/2001/REC-SVG-20010904/DTD/svg10.dtd">
<svg version="1.0" xmlns="http://www.w3.org/2000/svg" width="36px" height="36px" viewBox="0 0 512.000000 512.000000"
    preserveAspectRatio="xMidYMid meet">

    <g transform="translate(0.000000,512.000000) scale(0.100000,-0.100000)" fill="#c1f0d0" stroke="none">
        <path d="M1330 5110 c-108 -23 -227 -104 -286 -196 -61 -95 -78 -162 -78 -309
0 -179 29 -308 103 -450 34 -67 141 -189 186 -213 11 -6 18 -12 15 -15 -3 -2
-149 -41 -325 -86 -176 -45 -343 -93 -371 -106 -105 -51 -183 -143 -223 -262
-21 -61 -21 -79 -21 -841 l0 -778 26 -52 c51 -103 187 -186 301 -184 l63 1 0
-727 c0 -816 -3 -775 74 -839 57 -47 94 -53 314 -53 199 0 200 0 253 28 39 20
62 41 84 77 l30 48 3 869 c1 477 5 868 7 868 3 0 188 -106 412 -235 327 -188
417 -245 454 -284 77 -82 82 -105 88 -426 7 -310 7 -313 75 -373 20 -17 52
-36 73 -41 21 -6 129 -11 239 -11 201 0 202 0 255 28 39 20 62 41 84 77 l30
48 3 446 c3 489 0 528 -51 624 -38 73 -99 128 -213 193 -49 28 -243 140 -431
248 l-343 198 0 357 0 356 105 17 c406 66 878 348 1336 798 125 123 159 179
159 265 0 68 -23 118 -79 168 -64 58 -168 79 -232 46 -8 -4 -65 -49 -125 -99
-241 -202 -549 -419 -689 -486 -174 -83 -361 -72 -775 48 -96 28 -192 55 -212
61 -21 5 -38 12 -37 16 0 3 23 23 50 44 131 100 226 306 248 536 28 295 -81
503 -304 582 -68 24 -204 33 -275 19z m265 -100 c83 -32 173 -122 204 -204 73
-196 24 -512 -107 -684 -70 -93 -181 -166 -252 -166 -92 -1 -236 113 -302 239
-103 199 -126 474 -52 630 45 96 147 178 251 205 63 15 191 5 258 -20z m2010
-709 c71 -40 94 -125 55 -202 -37 -72 -321 -334 -538 -497 -154 -114 -262
-182 -417 -258 -162 -80 -313 -129 -475 -156 -69 -11 -131 -25 -137 -31 -10
-7 -13 -102 -13 -413 l0 -403 28 -19 c15 -10 218 -129 451 -263 245 -141 440
-260 463 -282 22 -22 52 -64 66 -95 l27 -57 3 -455 c3 -508 4 -500 -67 -547
-32 -22 -43 -23 -228 -23 -218 0 -249 7 -283 62 -19 31 -20 50 -20 274 0 262
-7 321 -46 402 -49 100 -90 129 -550 394 -519 298 -483 279 -506 267 -17 -9
-18 -48 -18 -907 0 -1000 4 -940 -69 -989 -32 -22 -43 -23 -228 -23 -217 0
-249 7 -284 64 -18 30 -19 81 -19 1517 0 1610 3 1515 -52 1507 l-23 -3 -3
-727 -2 -727 -38 -10 c-76 -21 -199 41 -248 125 l-24 42 2 783 3 784 28 57
c33 68 97 135 158 167 34 17 677 193 686 187 2 -2 -54 -885 -61 -963 -4 -51
-3 -55 89 -209 93 -156 111 -179 137 -169 7 3 55 76 107 163 l94 157 -32 508
c-18 280 -31 510 -29 511 2 2 68 -17 148 -41 317 -96 501 -133 656 -133 166 1
252 35 498 197 159 104 313 220 470 352 141 118 163 126 241 82z m-2100 -443
c2 -7 18 -237 36 -511 l31 -498 -48 -82 c-26 -45 -55 -94 -63 -109 -9 -16 -19
-28 -22 -28 -3 0 -34 47 -67 105 -55 93 -62 110 -62 157 0 29 14 258 30 508
16 250 30 458 30 463 0 13 130 8 135 -5z" />
        <path d="M3955 3941 c-167 -27 -298 -93 -415 -211 -97 -97 -139 -163 -183
-287 -30 -83 -32 -96 -31 -233 0 -129 3 -154 26 -222 25 -75 89 -201 108 -213
6 -4 10 -253 10 -681 0 -446 4 -682 10 -695 25 -47 49 -28 316 261 142 154
262 279 265 277 3 -1 119 -126 258 -277 140 -154 261 -276 272 -278 50 -8 49
-29 49 697 0 665 0 677 21 706 80 118 119 238 126 386 7 148 -11 239 -75 369
-39 80 -60 109 -136 185 -102 102 -197 159 -325 194 -84 23 -222 34 -296 22z
m270 -97 c104 -27 212 -90 295 -174 127 -127 190 -279 190 -460 0 -116 -17
-188 -72 -300 -57 -119 -170 -231 -289 -288 -265 -128 -555 -79 -760 128 -135
136 -196 297 -187 494 8 172 68 306 194 431 165 165 399 228 629 169z m-613
-1224 c129 -99 268 -144 443 -144 176 0 322 47 445 145 28 22 54 39 56 36 2
-2 3 -259 2 -570 l-3 -567 -238 260 c-150 163 -246 260 -258 260 -11 0 -110
-99 -260 -260 -133 -143 -244 -260 -246 -260 -1 0 -3 256 -3 570 0 314 2 570
5 570 2 0 28 -18 57 -40z" />
        <path d="M4022 3673 c-5 -10 -32 -77 -61 -149 l-52 -131 -150 -8 c-152 -7
-179 -15 -179 -50 0 -8 41 -50 92 -92 51 -43 105 -89 120 -103 l28 -25 -36
-139 c-19 -76 -34 -148 -32 -160 5 -32 44 -32 97 1 25 16 82 52 126 80 l81 51
124 -79 c190 -121 205 -110 146 112 -22 80 -32 137 -27 143 5 6 57 49 115 96
110 88 134 122 102 146 -11 7 -73 15 -165 19 l-148 7 -59 147 c-54 133 -61
146 -86 149 -18 2 -30 -3 -36 -15z m74 -230 c20 -54 42 -104 49 -111 8 -8 52
-16 119 -21 58 -4 108 -10 110 -12 3 -2 -33 -36 -80 -74 -97 -79 -96 -75 -60
-210 13 -49 23 -91 21 -93 -2 -2 -43 22 -91 52 -48 31 -97 56 -108 56 -11 0
-59 -25 -107 -55 -48 -30 -89 -55 -92 -55 -3 0 8 50 23 110 32 128 38 113 -78
209 l-73 60 33 5 c18 3 69 7 112 10 47 3 84 10 91 18 7 7 29 57 50 111 21 53
40 97 41 97 1 0 19 -44 40 -97z" />
    </g>
</svg>