<?xml version="1.0" standalone="no"?>
<!DOCTYPE svg PUBLIC "-//W3C//DTD SVG 20010904//EN" "http://www.w3.org/TR/2001/REC-SVG-20010904/DTD/svg10.dtd">
<svg version="1.0" xmlns="http://www.w3.org/2000/svg" width="36px" height="36px" viewBox="0 0 512.000000 512.000000"
    preserveAspectRatio="xMidYMid meet">

    <g transform="translate(0.000000,512.000000) scale(0.100000,-0.100000)" fill="#c1f0d0" stroke="none">
        <path d="M728 4901 c-158 -51 -287 -197 -318 -360 -5 -30 -10 -170 -10 -313
l0 -259 -85 -158 c-47 -87 -85 -164 -85 -173 0 -21 36 -65 58 -70 48 -13 75
15 152 160 l75 142 303 0 c296 0 302 0 302 -20 0 -11 -18 -143 -40 -293 -22
-149 -45 -332 -49 -405 -8 -116 -13 -140 -40 -197 -63 -136 -174 -215 -330
-236 -239 -32 -443 92 -497 301 -22 86 -14 158 25 242 29 61 31 70 19 95 -32
68 -103 62 -145 -12 -45 -79 -66 -170 -60 -259 14 -204 139 -385 320 -466 l77
-35 0 -976 c0 -622 4 -996 10 -1030 31 -165 155 -304 317 -358 62 -21 67 -21
1833 -21 1766 0 1771 0 1833 21 123 41 220 126 277 242 42 87 50 143 50 359 0
187 0 189 -25 213 -29 30 -64 32 -96 6 -24 -19 -24 -23 -29 -238 -5 -200 -8
-222 -28 -264 -33 -68 -82 -121 -143 -154 l-54 -30 -1785 0 -1785 0 -54 30
c-60 33 -109 86 -143 154 l-23 46 -3 993 -2 992 86 0 c100 0 204 30 287 84 51
32 137 117 168 165 l15 24 22 -35 c56 -91 224 -211 294 -211 41 0 68 29 68 73
0 43 -6 50 -88 90 -76 38 -144 111 -185 198 -31 66 -32 70 -30 197 1 94 14
209 45 420 l44 290 368 3 367 2 -3 -422 -3 -423 -32 -67 c-41 -87 -109 -160
-185 -198 -82 -40 -88 -47 -88 -90 0 -44 27 -73 68 -73 70 0 238 120 294 211
l22 35 15 -24 c31 -48 117 -133 168 -165 176 -114 430 -114 606 0 51 32 137
117 168 165 l15 24 22 -34 c28 -45 116 -130 169 -163 170 -105 417 -101 586 8
51 32 137 117 168 165 l15 24 22 -34 c28 -45 116 -130 169 -163 77 -47 182
-76 277 -76 l86 0 0 -630 0 -631 25 -24 c31 -32 69 -32 100 0 l25 24 0 638 0
638 77 35 c179 80 304 261 320 459 9 126 -7 167 -212 548 l-185 342 0 259 c0
143 -5 283 -10 313 -32 165 -161 310 -321 360 -54 17 -95 19 -378 19 -295 0
-319 -1 -334 -18 -24 -27 -22 -85 4 -108 20 -18 44 -19 343 -24 l321 -5 54
-30 c60 -33 109 -86 143 -154 22 -44 23 -59 26 -303 l3 -258 -2011 0 -2011 0
3 258 c3 244 4 259 26 303 34 68 83 121 143 154 l54 30 1316 5 c1277 5 1318 6
1338 24 27 25 29 86 3 109 -17 16 -123 17 -1333 16 -1246 0 -1317 -1 -1371
-18z m2250 -1453 l-3 -423 -32 -67 c-81 -172 -239 -258 -433 -236 -134 15
-250 103 -313 236 l-32 67 -3 423 -3 422 411 0 411 0 -3 -422z m877 400 c23
-109 79 -602 80 -703 0 -114 -1 -123 -32 -187 -42 -90 -110 -160 -192 -201
-62 -30 -72 -32 -176 -32 -104 0 -114 2 -176 32 -82 41 -150 111 -192 201
l-32 67 -3 423 -3 422 360 0 361 0 5 -22z m920 -295 c94 -173 176 -334 183
-357 8 -26 11 -66 8 -109 -10 -137 -100 -268 -225 -330 -65 -32 -67 -32 -211
-32 -144 0 -146 0 -211 32 -82 41 -150 111 -190 198 -27 57 -32 81 -40 200 -7
107 -62 571 -82 693 l-4 22 301 0 301 0 170 -317z" />
        <path d="M880 4621 c-142 -46 -207 -182 -149 -311 27 -60 45 -79 104 -106 155
-73 320 32 319 203 -1 78 -38 144 -104 185 -48 29 -128 43 -170 29z m83 -152
c25 -11 47 -47 47 -75 0 -25 -47 -64 -76 -64 -66 0 -96 79 -49 125 27 28 42
30 78 14z" />
        <path d="M1421 4599 c-47 -24 -93 -80 -112 -136 -27 -84 15 -199 93 -251 37
-24 51 -27 124 -27 75 0 86 3 125 30 56 40 99 120 99 185 0 65 -43 145 -99
185 -36 25 -53 30 -114 33 -59 2 -80 -1 -116 -19z m159 -151 c43 -47 10 -118
-55 -118 -41 0 -75 32 -75 70 0 63 86 95 130 48z" />
        <path d="M2011 4599 c-47 -24 -93 -80 -112 -136 -27 -84 15 -199 93 -251 37
-24 51 -27 124 -27 75 0 86 3 125 30 56 40 99 120 99 185 0 65 -43 145 -99
185 -36 25 -53 30 -114 33 -59 2 -80 -1 -116 -19z m159 -151 c43 -47 10 -118
-55 -118 -41 0 -75 32 -75 70 0 63 86 95 130 48z" />
        <path d="M2761 4599 c-112 -56 -152 -202 -87 -313 35 -59 87 -94 162 -106 80
-13 1325 -13 1395 0 30 6 72 23 94 38 52 36 95 118 95 182 0 65 -43 145 -99
185 l-43 30 -736 3 -737 2 -44 -21z m1489 -151 c39 -42 19 -101 -41 -118 -45
-13 -1313 -13 -1358 0 -60 17 -80 76 -41 118 l21 22 699 0 699 0 21 -22z" />
        <path d="M1320 2338 c-11 -12 -20 -33 -20 -47 1 -59 48 -81 172 -81 67 0 80
-3 106 -25 16 -13 34 -37 40 -52 6 -16 61 -266 122 -558 61 -291 120 -548 129
-570 22 -49 83 -110 132 -132 35 -15 36 -18 27 -45 -27 -77 19 -196 94 -246
37 -24 51 -27 124 -27 75 0 86 3 125 30 27 19 54 51 72 85 25 48 28 63 24 118
l-5 62 163 0 163 0 -5 -62 c-4 -55 -1 -70 24 -118 18 -34 45 -66 72 -85 39
-28 50 -30 126 -30 76 0 87 2 126 30 27 19 54 51 72 85 25 48 28 63 24 118 -5
60 -4 62 19 62 30 0 64 37 64 69 -1 33 -19 57 -54 71 -18 6 -230 10 -605 10
-571 0 -579 0 -605 21 -34 27 -52 63 -61 122 l-7 47 680 0 681 0 19 24 c13 18
41 138 100 433 45 224 82 415 82 423 0 8 -7 24 -16 35 -15 20 -30 20 -881 25
l-865 5 -20 52 c-23 61 -78 122 -140 151 -38 19 -62 22 -161 22 -107 0 -118
-2 -137 -22z m870 -365 c0 -5 7 -55 15 -113 8 -58 15 -111 15 -117 0 -10 -42
-13 -180 -13 -178 0 -180 0 -185 23 -15 69 -45 212 -45 219 0 10 380 11 380 1z
m660 4 c0 -22 -31 -231 -35 -238 -7 -11 -432 -12 -439 -1 -2 4 -9 46 -15 92
-6 47 -14 100 -17 118 l-5 32 256 0 c140 0 255 -1 255 -3z m520 -7 c0 -11 -38
-194 -46 -222 -5 -16 -22 -18 -180 -18 -96 0 -174 3 -174 8 0 4 7 54 15 112 8
58 15 111 15 118 0 16 370 18 370 2z m-1130 -397 c0 -5 7 -55 15 -113 8 -58
15 -108 15 -112 0 -5 -74 -8 -165 -8 -91 0 -165 3 -165 8 0 4 -11 58 -24 120
l-24 112 174 0 c96 0 174 -3 174 -7z m560 0 c0 -5 -7 -55 -15 -113 -8 -58 -15
-108 -15 -112 0 -12 -350 -10 -350 1 0 12 -18 155 -26 199 l-5 32 206 0 c113
0 205 -3 205 -7z m490 0 c-1 -5 -11 -57 -23 -118 l-23 -110 -162 -3 c-89 -1
-162 1 -162 5 0 5 7 55 15 113 8 58 15 108 15 113 0 4 77 7 170 7 94 0 170 -3
170 -7z m-990 -755 c43 -47 10 -118 -55 -118 -22 0 -41 8 -55 22 -43 47 -10
118 55 118 22 0 41 -8 55 -22z m760 0 c43 -47 10 -118 -55 -118 -22 0 -41 8
-55 22 -43 47 -10 118 55 118 22 0 41 -8 55 -22z" />
    </g>
</svg>